<?xml version="1.0" encoding="utf-8"?>
<!-- Generator: Adobe Illustrator 22.1.0, SVG Export Plug-In . SVG Version: 6.00 Build 0)  -->
<svg version="1.1" id="Layer_1" xmlns="http://www.w3.org/2000/svg" xmlns:xlink="http://www.w3.org/1999/xlink" x="0px" y="0px"
	 viewBox="0 0 160.4 100.3" style="enable-background:new 0 0 160.4 100.3;" xml:space="preserve">
<style type="text/css">
	.st0{fill:#FFDA4A;}
	.st1{fill:#F3EDD3;}
	.st2{fill:none;}
	.st3{opacity:0.3822;fill:#FFDA4A;}
	.st4{fill:#00402F;}
	.st5{fill:#231F20;}
	.st6{fill:#F14730;}
	.st7{fill:none;stroke:#231F20;stroke-width:0.5686;stroke-miterlimit:10;}
</style>
<g>
	<path class="st0" d="M97.7,30.8c0,0-11.3-13.2-14.9-13.8c-2.8-0.4-9.6,6.9-12.5,10.2c-0.7,0.8-0.6,2.1,0.2,2.9l2.8,2.2l10.8-1
		c0,0-7.5,0.4,0,0C91.6,30.8,97.7,30.8,97.7,30.8z"/>
</g>
<g>
	<path class="st1" d="M158.7,47.4c0,0-12.9-7.7-25.4-9.8c-20.3-3.4-50.5-6.3-79.2,2c-22.9,6.6-25.7,4.8-30,2.1
		c0,0-13.4-8.6-17.8-7.5C2,35.2,3.8,46.9,5.6,51.3S2.3,68.6,2.3,68.6s5.2,3.2,25.1-7.4c9.6-5.1,28.6,6.2,51.6,7.5
		c0,0,32.9,0.5,50.7-3.5c15.1-3.3,25.1-6.6,29.5-14l-10.5,3.6c0,0,5.6-5.8,9-6.3C160.5,48.2,158.7,47.4,158.7,47.4z"/>
</g>
<g>
	<path class="st0" d="M3.3,49c-1.8-4.4-3.6-16.1,0.8-17.2c4.4-1.1,17.8,7.5,17.8,7.5c1.5,0.9,2.8,1.8,4.8,2.2v16.8
		c-0.5,0.2-1,0.4-1.5,0.6C5.2,69.5,0,66.3,0,66.3S5.1,53.4,3.3,49z"/>
</g>
<g>
	<path class="st2" d="M71.1,61.1c5.3,0.1,10.6,0,15.9-0.4c2.4-0.2,4.9-0.4,7.3-0.6C86.6,60.7,78.9,61.1,71.1,61.1z"/>
	<path class="st3" d="M3.3,37.9c0,0.1,0,0.3,0,0.4c0.9,0.2,1.8,0.5,2.7,0.7c3.4,0.9,6.8,1.7,10.2,2.5C12,40.4,7.6,39.2,3.3,37.9z"/>
	<path class="st3" d="M3.3,37.9c0,0.1,0,0.3,0,0.4c0.9,0.2,1.8,0.5,2.7,0.7c3.4,0.9,6.8,1.7,10.2,2.5C12,40.4,7.6,39.2,3.3,37.9z"/>
	<path class="st3" d="M83.1,47.8c2.4-0.2,4.9-0.4,7.3-0.6c-7.7,0.7-15.5,1.1-23.2,1C72.5,48.4,77.8,48.2,83.1,47.8z"/>
	<path class="st3" d="M83.1,47.8c2.4-0.2,4.9-0.4,7.3-0.6c-7.7,0.7-15.5,1.1-23.2,1C72.5,48.4,77.8,48.2,83.1,47.8z"/>
	<path class="st3" d="M83.1,47.8c2.4-0.2,4.9-0.4,7.3-0.6c-7.7,0.7-15.5,1.1-23.2,1C72.5,48.4,77.8,48.2,83.1,47.8z"/>
	<path class="st3" d="M154.7,44.3c-0.3-0.1-0.7-0.3-1-0.4c-11,3.6-22,7-33.4,9.5c-15,3.3-30.2,5.2-45.5,5.6
		c-15.9,0.5-31.7-0.6-47.3-3.8c-7.6-1.5-15.1-3.5-22.5-5.8c0.1,0.2,0.1,0.5,0.2,0.7c5.1,1.6,10.3,3.1,15.5,4.4
		c1.8,0.4,3.7,0.8,5.6,1.2c13.4,2.9,26.7,4.7,40.4,5.1c1.5,0.1,2.9,0.1,4.4,0.2c7.8,0,15.5-0.3,23.2-1c6.3-0.6,12.5-1.5,18.7-2.7
		c4.1-0.9,8.3-1.8,12.4-2.7c4-1.1,8-2.3,12-3.4c3.8-1.3,7.7-2.7,11.5-4c2-0.9,4.1-1.7,6.1-2.6C155,44.5,154.8,44.4,154.7,44.3z"/>
	<path class="st3" d="M150.7,42.5c-8,2.4-15.9,4.8-24,6.9c-20.9,5.3-42.5,7.9-64,7.5c-9.2-0.2-18.2-0.9-27.3-2.3
		c-10.5-1.6-20.7-4-30.8-6.9c0.2,0.6,0.4,1.2,0.6,1.8c7.4,2.2,14.9,4.3,22.5,5.8c15.6,3.2,31.4,4.3,47.3,3.8
		c15.3-0.5,30.5-2.4,45.5-5.6c11.4-2.5,22.4-5.9,33.4-9.5C152.7,43.5,151.6,43.1,150.7,42.5z"/>
	<path class="st3" d="M150.7,42.5c-8,2.4-15.9,4.8-24,6.9c-20.9,5.3-42.5,7.9-64,7.5c-9.2-0.2-18.2-0.9-27.3-2.3
		c-10.5-1.6-20.7-4-30.8-6.9c0.2,0.6,0.4,1.2,0.6,1.8c7.4,2.2,14.9,4.3,22.5,5.8c15.6,3.2,31.4,4.3,47.3,3.8
		c15.3-0.5,30.5-2.4,45.5-5.6c11.4-2.5,22.4-5.9,33.4-9.5C152.7,43.5,151.6,43.1,150.7,42.5z"/>
	<path class="st3" d="M156.3,51.9c-1.1,0.4-2.1,1-3.2,1.3c-0.2,0.2-0.4,0.4-0.5,0.6c-0.6,0.8-2.1,0-1.4-0.8c1.3-1.7,2.9-2.9,4.9-3.6
		c1.1-0.4,2.4-0.9,3.4-1.6c0,0-0.1,0-0.1-0.1c-0.3-0.4-0.7-0.8-1.2-1.1c-0.2,0-0.4,0-0.6-0.2c-0.1-0.1-0.2-0.1-0.3-0.2
		c-4.7,1.5-9.3,3-14,4.3c-8.3,2.4-16.6,4.4-25,6c-2.9,0.6-5.9,1.1-8.8,1.5c-0.7,0.1-1.4,0.3-2,0.4c0.7-0.1,1.3-0.3,2-0.4
		c-5,0.8-10,1.4-15.1,1.9c-2.4,0.2-4.9,0.5-7.3,0.6c-5.3,0.4-10.6,0.6-15.9,0.4c-6.3,0-12.7-0.3-19.1-1c-9.2-0.9-18.2-2.4-27.2-4.5
		c-1.3-0.3-2.7-0.7-4-1c-5.2-1.2-10.3-2.5-15.4-3.9c0.2,0.9,0.3,1.8,0.3,2.7c0,0.8,0,1.6-0.1,2.3c0,1.3-0.2,2.6-0.5,3.9
		c0.2,0.1,0.4,0.1,0.5,0.2c5.4,1.6,10.9,3.1,16.4,4.4c0.3-0.1,0.6-0.3,1-0.4c0-0.3,0.1-0.6,0.4-0.7c9.6-5,18.4-2,27.8,0.9
		c2.1,0.5,4.3,0.9,6.5,1.3c0.7,0.1,1.2,0.5,1.4,0.9c5.9,1.6,12.3,3.2,18.4,3c2.7-0.1,5.3,0.1,7.9,0.2c15.2-0.9,30.4-3.4,45.2-7.1
		c9.1-2.3,18.1-5,27-7.8c0.5-0.9,1-1.7,1.5-2.5c0.2-0.3,0.3-0.6,0.5-0.9C158.5,51.4,157.3,51.5,156.3,51.9z"/>
	<path class="st3" d="M107.4,58.5c0.7-0.1,1.4-0.3,2-0.4c0,0,0,0,0,0C108.7,58.3,108.1,58.4,107.4,58.5z"/>
	<path class="st3" d="M150.1,46.8c-0.4,0.1-0.7,0.3-1.1,0.4c-1.5,0.6-3,1.3-4.5,1.9C146.4,48.3,148.2,47.6,150.1,46.8z"/>
	<path class="st3" d="M150.1,46.8c-0.4,0.1-0.7,0.3-1.1,0.4c-1.5,0.6-3,1.3-4.5,1.9C146.4,48.3,148.2,47.6,150.1,46.8z"/>
	<path class="st3" d="M125.9,54.5c-0.1,0-0.3,0.1-0.4,0.1c-1.8,0.5-3.6,1-5.4,1.5C122,55.6,123.9,55,125.9,54.5z"/>
	<path class="st3" d="M125.9,54.5c-0.1,0-0.3,0.1-0.4,0.1c-1.8,0.5-3.6,1-5.4,1.5C122,55.6,123.9,55,125.9,54.5z"/>
	<path class="st3" d="M155.1,44.6c-2,0.9-4.1,1.7-6.1,2.6c0.4-0.1,0.7-0.3,1.1-0.4c-1.9,0.8-3.7,1.5-5.6,2.3c1.5-0.6,3-1.3,4.5-1.9
		c-3.8,1.3-7.7,2.7-11.5,4c0.2-0.1,0.5-0.1,0.7-0.2c-1.9,0.6-3.8,1.3-5.7,1.9c1.7-0.6,3.3-1.2,5-1.7c-4,1.1-8,2.3-12,3.4
		c0.1,0,0.3-0.1,0.4-0.1c-1.9,0.5-3.8,1.1-5.8,1.6c1.8-0.5,3.6-1,5.4-1.5c-4.1,0.9-8.3,1.8-12.4,2.7c0,0,0.1,0,0.1,0
		c-1.3,0.3-2.5,0.5-3.8,0.8c3-0.5,5.9-1,8.8-1.5c8.4-1.6,16.8-3.6,25-6c4.7-1.4,9.4-2.8,14-4.3C156.6,45.6,155.9,45.1,155.1,44.6z"
		/>
	<path class="st3" d="M155.1,44.6c-2,0.9-4.1,1.7-6.1,2.6c0.4-0.1,0.7-0.3,1.1-0.4c-1.9,0.8-3.7,1.5-5.6,2.3c1.5-0.6,3-1.3,4.5-1.9
		c-3.8,1.3-7.7,2.7-11.5,4c0.2-0.1,0.5-0.1,0.7-0.2c-1.9,0.6-3.8,1.3-5.7,1.9c1.7-0.6,3.3-1.2,5-1.7c-4,1.1-8,2.3-12,3.4
		c0.1,0,0.3-0.1,0.4-0.1c-1.9,0.5-3.8,1.1-5.8,1.6c1.8-0.5,3.6-1,5.4-1.5c-4.1,0.9-8.3,1.8-12.4,2.7c0,0,0.1,0,0.1,0
		c-1.3,0.3-2.5,0.5-3.8,0.8c3-0.5,5.9-1,8.8-1.5c8.4-1.6,16.8-3.6,25-6c4.7-1.4,9.4-2.8,14-4.3C156.6,45.6,155.9,45.1,155.1,44.6z"
		/>
	<path class="st3" d="M52,60.1c6.4,0.6,12.7,0.9,19.1,1c-1.5,0-2.9-0.1-4.4-0.2c-13.7-0.4-27-2.2-40.4-5.1c-1.9-0.4-3.7-0.8-5.6-1.2
		c1.3,0.3,2.7,0.7,4,1C33.8,57.7,42.8,59.2,52,60.1z"/>
	<path class="st3" d="M52,60.1c6.4,0.6,12.7,0.9,19.1,1c-1.5,0-2.9-0.1-4.4-0.2c-13.7-0.4-27-2.2-40.4-5.1c-1.9-0.4-3.7-0.8-5.6-1.2
		c1.3,0.3,2.7,0.7,4,1C33.8,57.7,42.8,59.2,52,60.1z"/>
	<path class="st3" d="M113.1,57.3c-1.2,0.3-2.4,0.5-3.7,0.8c0,0,0,0,0,0c1.3-0.3,2.5-0.5,3.8-0.8C113.2,57.3,113.1,57.3,113.1,57.3z
		"/>
	<path class="st3" d="M113.1,57.3c-1.2,0.3-2.4,0.5-3.7,0.8c0,0,0,0,0,0c1.3-0.3,2.5-0.5,3.8-0.8C113.2,57.3,113.1,57.3,113.1,57.3z
		"/>
	<path class="st3" d="M138.2,51c-0.2,0.1-0.5,0.1-0.7,0.2c-1.7,0.6-3.3,1.2-5,1.7C134.4,52.3,136.3,51.6,138.2,51z"/>
	<path class="st3" d="M138.2,51c-0.2,0.1-0.5,0.1-0.7,0.2c-1.7,0.6-3.3,1.2-5,1.7C134.4,52.3,136.3,51.6,138.2,51z"/>
	<path class="st3" d="M94.3,60c5-0.5,10.1-1.1,15.1-1.9c1.2-0.3,2.4-0.5,3.7-0.8C106.9,58.5,100.6,59.4,94.3,60z"/>
	<path class="st3" d="M94.3,60c5-0.5,10.1-1.1,15.1-1.9c1.2-0.3,2.4-0.5,3.7-0.8C106.9,58.5,100.6,59.4,94.3,60z"/>
	<path class="st4" d="M150.1,42.2c-0.1-0.1-0.2-0.2-0.2-0.3c-2.3-0.8-4.6-1.7-7-2.4c-1.1-0.3-2.3-0.6-3.4-0.9
		c-0.2-0.1-0.3-0.2-0.4-0.3c-0.3-0.1-0.6-0.2-0.9-0.3c0,0-0.1,0-0.1,0c-0.8-0.1-1.7-0.3-2.5-0.4c-2.9-0.5-5.8-0.9-8.8-1.4
		c-1.3-0.2-2.6-0.4-3.9-0.6c-2.8-0.4-7.6-1-11.8-1.4c-0.2,0-0.4,0-0.6-0.1c-2.6-0.2-5.1-0.4-7.7-0.6c-1.7-0.1-3.5-0.2-5.2-0.3
		c-8.5-0.3-18.3-0.1-25,1.2c-1.6,0.3-3.3,0.7-4.9,1.1c-2.2,0.5-4.3,1.1-6.5,1.7c-2.9,0.7-5.7,1.4-8.6,2c-4.8,1.7-11.6,4.6-17.5,5.1
		c-3.1-0.4-6.2-0.8-9.2-1.4c-5.3-2.1-9.5-5.8-15.5-8.4c-0.3,0-3.9-0.3-3.9-0.3c-0.3-0.1-1.5,0.4-2.2,0.6c0,0,0,0,0,0
		c-0.2,0.2-0.4,0.4-0.5,0.6c-0.1,0.4-0.2,0.9-0.4,1.3c2.8,0.7,5.7,1,8.4,2.1c-2.7-1.1-5.6-1.4-8.4-2.1c0,0,0,0.1,0,0.1
		c0,0.1,0,0.3,0,0.4c0,0.2,0,0.4,0,0.6c4.3,1.3,8.6,2.6,13,3.7c-3.4-0.8-6.8-1.7-10.2-2.5c-0.9-0.2-1.8-0.5-2.7-0.7
		c0,0.8-0.1,1.6-0.3,2.4c0,0.3-0.1,0.5-0.1,0.8c0,0.2-0.1,0.4-0.1,0.6c0.6,1.4,1,2.9,1,4.4c0.2,0.4,0.4,0.8,0.5,1.2
		c10.1,2.9,20.4,5.3,30.8,6.9c9.1,1.4,18.1,2.1,27.3,2.3c21.6,0.4,43.1-2.2,64-7.5c8.1-2,16-4.4,24-6.9
		C150.5,42.4,150.3,42.3,150.1,42.2z"/>
</g>
<path class="st2" d="M158.7,47.4c0,0-12.9-7.7-25.4-9.8c-20.3-3.4-50.5-6.3-79.2,2c-22.9,6.6-25.7,4.8-30,2.1c0,0-13.4-8.6-17.8-7.5
	C2,35.2,3.8,46.9,5.6,51.3S2.3,68.6,2.3,68.6s5.2,3.2,25.1-7.4c9.6-5.1,28.6,6.2,51.6,7.5c0,0,32.9,0.5,50.7-3.5
	c15.1-3.3,25.1-6.6,29.5-14l-10.5,3.6c0,0,5.6-5.8,9-6.3C160.5,48.2,158.7,47.4,158.7,47.4z"/>
<g>
	<g>
		<path class="st0" d="M115.5,40.8c-0.1,0.9,0.1,2.3,1.6,2.3c0.2,0,0.3,0,0.5,0c0.2,0,0.4-0.1,0.6-0.2c0.3-0.3,0.3-0.9,0.1-1.5
			c-0.1-0.1-0.1-0.3-0.2-0.4c-1-0.8-1.9-0.7-2.4-0.4C115.5,40.6,115.5,40.7,115.5,40.8z M116.1,41.9c0,0,0,0.1,0,0.1L116.1,41.9z"/>
	</g>
	<g>
		<path class="st0" d="M122.2,38.3c-0.1,0.9,0.1,2.3,1.6,2.3c0.2,0,0.3,0,0.5,0c0.2,0,0.4-0.1,0.6-0.2c0.3-0.3,0.3-0.9,0.1-1.5
			c-0.1-0.1-0.1-0.3-0.2-0.4c-1-0.8-1.9-0.7-2.4-0.4C122.3,38.1,122.3,38.2,122.2,38.3z M122.9,39.4c0,0,0,0.1,0,0.1L122.9,39.4z"/>
	</g>
	<g>
		<path class="st0" d="M126,43.8c-0.1,0.9,0.1,2.3,1.6,2.3c0.2,0,0.3,0,0.5,0c0.2,0,0.4-0.1,0.6-0.2c0.3-0.3,0.3-0.9,0.1-1.5
			c-0.1-0.1-0.1-0.3-0.2-0.4c-1-0.8-1.9-0.7-2.4-0.4C126,43.6,126,43.7,126,43.8z M126.6,45c0,0,0,0.1,0,0.1L126.6,45z"/>
	</g>
	<g>
		<path class="st0" d="M91.1,44.9c0.1,0.2,0.2,0.3,0.3,0.5c0,0.3,0,0.5,0,0.8c0,0.3,0.1,0.6,0.5,0.7c0.2,0.1,0.4,0.1,0.6,0
			c0.7-0.2,1.1-0.7,1.2-1.3c0.1-0.3,0-0.6-0.1-0.9c-0.2-0.4-0.8-0.6-1.2-0.7c-0.5-0.2-1.1-0.3-1.4,0.1
			C90.8,44.3,90.9,44.6,91.1,44.9z M91.5,45.6c0,0,0,0.1,0,0.1L91.5,45.6z"/>
	</g>
	<g>
		<path class="st0" d="M94.5,39.1c0.1,0.2,0.2,0.3,0.3,0.5c0,0.3,0,0.5,0,0.8c0,0.3,0.1,0.6,0.5,0.7c0.2,0.1,0.4,0.1,0.6,0
			c0.7-0.2,1.1-0.7,1.2-1.3c0.1-0.3,0-0.6-0.1-0.9c-0.2-0.4-0.8-0.6-1.2-0.7c-0.5-0.2-1.1-0.3-1.4,0.1
			C94.2,38.5,94.3,38.8,94.5,39.1z M94.8,39.8c0,0,0,0.1,0,0.1L94.8,39.8z"/>
	</g>
	<g>
		<path class="st0" d="M108.6,43.7c0.1,0.2,0.2,0.3,0.3,0.5c0,0.3,0,0.5,0,0.8c0,0.3,0.1,0.6,0.5,0.7c0.2,0.1,0.4,0.1,0.6,0
			c0.7-0.2,1.1-0.7,1.2-1.3c0.1-0.3,0-0.6-0.1-0.9c-0.2-0.4-0.8-0.6-1.2-0.7c-0.5-0.2-1.1-0.3-1.4,0.1
			C108.3,43.1,108.5,43.5,108.6,43.7z M109,44.5c0,0,0,0.1,0,0.1L109,44.5z"/>
	</g>
	<g>
		<path class="st0" d="M98.3,42.2c0-0.1,0.1-0.1,0.1-0.2c0.1-0.1,0.2-0.2,0.3-0.3c0.6-0.6,2.1-0.5,2.6,0.2c0,0,0.1,0.1,0.1,0.1
			c0,0.1-0.1,0.2-0.2,0.3c-0.1,0.1-0.2,0.2-0.2,0.4c-0.1,0.2-0.1,0.4-0.2,0.5c-0.2,0.4-0.7,0.6-1.2,0.5c-0.7,0-1.6-0.6-1.4-1.2
			C98.2,42.4,98.3,42.3,98.3,42.2z"/>
	</g>
	<g>
		<path class="st0" d="M131.4,38.7c0-0.1,0.1-0.1,0.1-0.2c0.1-0.1,0.2-0.2,0.3-0.3c0.6-0.6,2.1-0.5,2.6,0.2c0,0,0.1,0.1,0.1,0.1
			c0,0.1-0.1,0.2-0.2,0.3c-0.1,0.1-0.2,0.2-0.2,0.4c-0.1,0.2-0.1,0.4-0.2,0.5c-0.2,0.4-0.7,0.6-1.2,0.5c-0.7,0-1.6-0.6-1.4-1.2
			C131.2,38.9,131.3,38.8,131.4,38.7z"/>
	</g>
	<g>
		<g>
			<path class="st1" d="M101.1,38.8c0.1,0.1,0.1,0.2,0.2,0.2c0,0.1,0,0.3,0,0.4c0,0.2,0.1,0.3,0.2,0.4c0.1,0,0.2,0,0.3,0
				c0.4-0.1,0.6-0.4,0.7-0.7c0-0.2,0-0.3-0.1-0.5c-0.1-0.2-0.4-0.3-0.7-0.4c-0.2-0.1-0.6-0.1-0.7,0C100.9,38.5,101,38.7,101.1,38.8z
				 M101.3,39.2C101.3,39.2,101.3,39.3,101.3,39.2L101.3,39.2z"/>
		</g>
	</g>
	<g>
		<g>
			<path class="st1" d="M95.6,34.8c0.1,0.1,0.1,0.2,0.2,0.2c0,0.1,0,0.3,0,0.4c0,0.2,0.1,0.3,0.2,0.4c0.1,0,0.2,0,0.3,0
				c0.4-0.1,0.6-0.4,0.7-0.7c0-0.2,0-0.3-0.1-0.5c-0.1-0.2-0.4-0.3-0.7-0.4c-0.2-0.1-0.6-0.1-0.7,0C95.4,34.5,95.5,34.7,95.6,34.8z
				 M95.8,35.2C95.8,35.2,95.8,35.2,95.8,35.2L95.8,35.2z"/>
		</g>
	</g>
	<g>
		<g>
			<path class="st1" d="M103.1,33.8c0.1,0.1,0.1,0.2,0.2,0.2c0,0.1,0,0.3,0,0.4c0,0.2,0.1,0.3,0.2,0.4c0.1,0,0.2,0,0.3,0
				c0.4-0.1,0.6-0.4,0.7-0.7c0-0.2,0-0.3-0.1-0.5c-0.1-0.2-0.4-0.3-0.7-0.4c-0.2-0.1-0.6-0.1-0.7,0C102.9,33.5,103,33.7,103.1,33.8z
				 M103.3,34.2C103.3,34.3,103.3,34.3,103.3,34.2L103.3,34.2z"/>
		</g>
	</g>
	<g>
		<g>
			<path class="st1" d="M119,37.5c0,0.1,0.1,0.1,0.1,0.2c0,0.1,0,0.2,0,0.3c0,0.1,0.1,0.3,0.2,0.3c0.1,0,0.2,0,0.3,0
				c0.3-0.1,0.5-0.3,0.6-0.6c0-0.1,0-0.3-0.1-0.4c-0.1-0.2-0.3-0.3-0.6-0.3c-0.2-0.1-0.5-0.1-0.6,0C118.8,37.2,118.9,37.4,119,37.5z
				 M119.1,37.8C119.1,37.8,119.1,37.8,119.1,37.8L119.1,37.8z"/>
		</g>
	</g>
	<g>
		<g>
			<path class="st1" d="M111.9,39.4c0,0.1,0.1,0.1,0.1,0.2c0,0.1,0,0.2,0,0.3c0,0.1,0.1,0.3,0.2,0.3c0.1,0,0.2,0,0.3,0
				c0.3-0.1,0.5-0.3,0.6-0.6c0-0.1,0-0.3-0.1-0.4c-0.1-0.2-0.3-0.3-0.6-0.3c-0.2-0.1-0.5-0.1-0.6,0
				C111.8,39.1,111.8,39.3,111.9,39.4z M112.1,39.7C112.1,39.8,112.1,39.8,112.1,39.7L112.1,39.7z"/>
		</g>
	</g>
	<g>
		<g>
			<path class="st1" d="M106.7,39.4c0,0.1,0.1,0.1,0.1,0.2c0,0.1,0,0.2,0,0.3c0,0.1,0.1,0.3,0.2,0.3c0.1,0,0.2,0,0.3,0
				c0.3-0.1,0.5-0.3,0.6-0.6c0-0.1,0-0.3-0.1-0.4c-0.1-0.2-0.3-0.3-0.6-0.3c-0.2-0.1-0.5-0.1-0.6,0
				C106.6,39.1,106.6,39.3,106.7,39.4z M106.9,39.7C106.9,39.8,106.9,39.8,106.9,39.7L106.9,39.7z"/>
		</g>
	</g>
	<g>
		<g>
			<path class="st1" d="M127.2,39.6c0,0.1,0.1,0.1,0.1,0.2c0,0.1,0,0.2,0,0.3c0,0.1,0.1,0.3,0.2,0.3c0.1,0,0.2,0,0.3,0
				c0.3-0.1,0.5-0.3,0.6-0.6c0-0.1,0-0.3-0.1-0.4c-0.1-0.2-0.3-0.3-0.6-0.3c-0.2-0.1-0.5-0.1-0.6,0C127,39.3,127.1,39.4,127.2,39.6z
				 M127.3,39.9C127.3,39.9,127.3,39.9,127.3,39.9L127.3,39.9z"/>
		</g>
	</g>
	<g>
		<path class="st1" d="M106.9,35.6C106.9,35.5,107,35.5,106.9,35.6c0.1-0.1,0.2-0.2,0.2-0.3c0.3-0.3,1.1-0.2,1.3,0.1c0,0,0,0,0,0.1
			c0,0.1-0.1,0.1-0.1,0.1c-0.1,0.1-0.1,0.1-0.1,0.2c0,0.1-0.1,0.2-0.1,0.3c-0.1,0.2-0.4,0.3-0.6,0.3c-0.4,0-0.8-0.3-0.7-0.6
			C106.8,35.7,106.9,35.6,106.9,35.6z"/>
	</g>
	<g>
		<path class="st1" d="M115.1,45.1C115.1,45.1,115.2,45,115.1,45.1c0.1-0.1,0.2-0.2,0.2-0.3c0.3-0.3,1.1-0.2,1.3,0.1c0,0,0,0,0,0.1
			c0,0.1-0.1,0.1-0.1,0.1c-0.1,0.1-0.1,0.1-0.1,0.2c0,0.1-0.1,0.2-0.1,0.3c-0.1,0.2-0.4,0.3-0.6,0.3c-0.4,0-0.8-0.3-0.7-0.6
			C115,45.2,115.1,45.1,115.1,45.1z"/>
	</g>
	<g>
		<path class="st0" d="M63.3,44.9c0.1,0.2,0.2,0.3,0.3,0.5c0,0.3,0,0.5,0,0.8c0,0.3,0.1,0.6,0.5,0.7c0.2,0.1,0.4,0.1,0.6,0
			c0.7-0.2,1.1-0.7,1.2-1.3c0.1-0.3,0-0.6-0.1-0.9c-0.2-0.4-0.8-0.6-1.2-0.7c-0.5-0.2-1.1-0.3-1.4,0.1C63,44.3,63.1,44.7,63.3,44.9z
			 M63.7,45.7c0,0,0,0.1,0,0.1L63.7,45.7z"/>
	</g>
	<g>
		<path class="st0" d="M83.6,47.8c0.1,0.2,0.2,0.3,0.3,0.5c0,0.3,0,0.5,0,0.8c0,0.3,0.1,0.6,0.5,0.7c0.2,0.1,0.4,0.1,0.6,0
			c0.7-0.2,1.1-0.7,1.2-1.3c0.1-0.3,0-0.6-0.1-0.9c-0.2-0.4-0.8-0.6-1.2-0.7c-0.5-0.2-1.1-0.3-1.4,0.1
			C83.3,47.2,83.4,47.5,83.6,47.8z M83.9,48.5c0,0,0,0.1,0,0.1L83.9,48.5z"/>
	</g>
	<g>
		<path class="st0" d="M71.1,46.8c0-0.1,0.1-0.1,0.1-0.2c0.1-0.1,0.2-0.2,0.3-0.3c0.6-0.6,2.1-0.5,2.6,0.2c0,0,0.1,0.1,0.1,0.1
			c0,0.1-0.1,0.2-0.2,0.3c-0.1,0.1-0.2,0.2-0.2,0.4c-0.1,0.2-0.1,0.4-0.2,0.5c-0.2,0.4-0.7,0.6-1.2,0.5c-0.7,0-1.6-0.6-1.4-1.2
			C70.9,46.9,71,46.8,71.1,46.8z"/>
	</g>
	<g>
		<g>
			<path class="st1" d="M97.7,46.5c0,0.5,0,1.3,0.9,1.3c0.1,0,0.2,0,0.3,0c0.1,0,0.2-0.1,0.3-0.1c0.2-0.2,0.2-0.5,0-0.9
				c0-0.1-0.1-0.2-0.1-0.2c-0.6-0.5-1.1-0.4-1.4-0.2C97.8,46.4,97.8,46.5,97.7,46.5z"/>
		</g>
	</g>
	<g>
		<g>
			<path class="st1" d="M73.2,50.6c0.1,0.1,0.1,0.2,0.2,0.2c0,0.1,0,0.3,0,0.4c0,0.2,0.1,0.3,0.2,0.4c0.1,0,0.2,0,0.3,0
				c0.4-0.1,0.6-0.4,0.7-0.7c0-0.2,0-0.3-0.1-0.5c-0.1-0.2-0.4-0.3-0.7-0.4c-0.2-0.1-0.6-0.1-0.7,0C73,50.2,73.1,50.4,73.2,50.6z
				 M73.4,51C73.4,51,73.4,51,73.4,51L73.4,51z"/>
		</g>
	</g>
	<g>
		<g>
			<path class="st1" d="M65.3,50.2c0.1,0.1,0.1,0.2,0.2,0.2c0,0.1,0,0.3,0,0.4c0,0.2,0.1,0.3,0.2,0.4c0.1,0,0.2,0,0.3,0
				c0.4-0.1,0.6-0.4,0.7-0.7c0-0.2,0-0.3-0.1-0.5c-0.1-0.2-0.4-0.3-0.7-0.4c-0.2-0.1-0.6-0.1-0.7,0C65.1,49.9,65.2,50.1,65.3,50.2z
				 M65.5,50.6C65.5,50.7,65.5,50.7,65.5,50.6L65.5,50.6z"/>
		</g>
	</g>
	<g>
		<g>
			<path class="st1" d="M79.6,48.2c0.1,0.1,0.1,0.2,0.2,0.2c0,0.1,0,0.3,0,0.4c0,0.2,0.1,0.3,0.2,0.4c0.1,0,0.2,0,0.3,0
				c0.4-0.1,0.6-0.4,0.7-0.7c0-0.2,0-0.3-0.1-0.5c-0.1-0.2-0.4-0.3-0.7-0.4c-0.2-0.1-0.6-0.1-0.7,0C79.4,47.9,79.5,48.1,79.6,48.2z
				 M79.8,48.6C79.8,48.7,79.8,48.7,79.8,48.6L79.8,48.6z"/>
		</g>
	</g>
	<g>
		<g>
			<path class="st1" d="M91.1,49.2c0,0.1,0.1,0.1,0.1,0.2c0,0.1,0,0.2,0,0.3c0,0.1,0.1,0.3,0.2,0.3c0.1,0,0.2,0,0.3,0
				c0.3-0.1,0.5-0.3,0.6-0.6c0-0.1,0-0.3-0.1-0.4c-0.1-0.2-0.3-0.3-0.6-0.3c-0.2-0.1-0.5-0.1-0.6,0C90.9,48.9,91,49.1,91.1,49.2z
				 M91.2,49.5C91.2,49.6,91.2,49.6,91.2,49.5L91.2,49.5z"/>
		</g>
	</g>
	<g>
		<g>
			<path class="st1" d="M103.9,46.1c0,0.1,0.1,0.1,0.1,0.2c0,0.1,0,0.2,0,0.3c0,0.1,0.1,0.3,0.2,0.3c0.1,0,0.2,0,0.3,0
				c0.3-0.1,0.5-0.3,0.6-0.6c0-0.1,0-0.3-0.1-0.4c-0.1-0.2-0.3-0.3-0.6-0.3c-0.2-0.1-0.5-0.1-0.6,0C103.7,45.9,103.8,46,103.9,46.1z
				 M104.1,46.5C104.1,46.5,104.1,46.5,104.1,46.5L104.1,46.5z"/>
		</g>
	</g>
	<g>
		<path class="st1" d="M75.5,44.9C75.5,44.9,75.6,44.9,75.5,44.9c0.1-0.1,0.2-0.2,0.2-0.3c0.3-0.3,1.1-0.2,1.3,0.1c0,0,0,0,0,0.1
			c0,0.1-0.1,0.1-0.1,0.1c-0.1,0.1-0.1,0.1-0.1,0.2c0,0.1-0.1,0.2-0.1,0.3c-0.1,0.2-0.4,0.3-0.6,0.3c-0.4,0-0.8-0.3-0.7-0.6
			C75.4,45,75.5,45,75.5,44.9z"/>
	</g>
	<g>
		<path class="st1" d="M57.5,48.3C57.5,48.3,57.5,48.2,57.5,48.3c0.1-0.1,0.2-0.2,0.2-0.3c0.3-0.3,1.1-0.2,1.3,0.1c0,0,0,0,0,0.1
			c0,0.1-0.1,0.1-0.1,0.1c-0.1,0.1-0.1,0.1-0.1,0.2c0,0.1-0.1,0.2-0.1,0.3c-0.1,0.2-0.4,0.3-0.6,0.3c-0.4,0-0.8-0.3-0.7-0.6
			C57.4,48.4,57.4,48.3,57.5,48.3z"/>
	</g>
	<g>
		<path class="st0" d="M62.6,39.8c-0.6-0.2-1.5-0.2-2.3,0.8c-0.1,0.1-0.1,0.3-0.1,0.5c-0.1,0.6,0,1.2,0.4,1.5
			c0.2,0.1,0.4,0.1,0.6,0.1c0.2,0,0.4,0,0.5-0.1c1.4-0.3,1.3-1.7,1.1-2.6C62.8,40,62.7,39.9,62.6,39.8z M62.4,41.5c0,0,0-0.1,0-0.1
			L62.4,41.5z"/>
	</g>
	<g>
		<path class="st0" d="M55.5,38.7c-0.6-0.2-1.5-0.2-2.3,0.8c-0.1,0.1-0.1,0.3-0.1,0.5c-0.1,0.6,0,1.2,0.4,1.5
			c0.2,0.1,0.4,0.1,0.6,0.1c0.2,0,0.4,0,0.5-0.1c1.4-0.3,1.3-1.7,1.1-2.6C55.6,38.8,55.6,38.8,55.5,38.7z M55.3,40.3
			c0,0,0-0.1,0-0.1L55.3,40.3z"/>
	</g>
	<g>
		<path class="st0" d="M52.9,44.9c-0.6-0.2-1.5-0.2-2.3,0.8c-0.1,0.1-0.1,0.3-0.1,0.5c-0.1,0.6,0,1.2,0.4,1.5
			c0.2,0.1,0.4,0.1,0.6,0.1c0.2,0,0.4,0,0.5-0.1c1.4-0.3,1.3-1.7,1.1-2.6C53.1,45,53,44.9,52.9,44.9z M52.7,46.5c0,0,0-0.1,0-0.1
			L52.7,46.5z"/>
	</g>
	<g>
		<path class="st0" d="M88.5,37.1c-0.4-0.3-0.9,0-1.4,0.2c-0.4,0.3-0.9,0.5-1.1,1c-0.1,0.3-0.1,0.6,0.1,0.9c0.2,0.5,0.8,1,1.5,1.1
			c0.2,0,0.4,0,0.6-0.1c0.3-0.2,0.3-0.5,0.3-0.8c0-0.3-0.1-0.5-0.1-0.7c0-0.2,0.1-0.4,0.2-0.5C88.7,37.7,88.8,37.3,88.5,37.1z
			 M88.4,38.9c0,0,0-0.1,0-0.1L88.4,38.9z"/>
	</g>
	<g>
		<path class="st0" d="M82.1,36.8c-0.4-0.3-0.9,0-1.4,0.2c-0.4,0.3-0.9,0.5-1.1,1c-0.1,0.3-0.1,0.6,0.1,0.9c0.2,0.5,0.8,1,1.5,1.1
			c0.2,0,0.4,0,0.6-0.1c0.3-0.2,0.3-0.5,0.3-0.8c0-0.3-0.1-0.5-0.1-0.7c0-0.2,0.1-0.4,0.2-0.5C82.3,37.4,82.4,37,82.1,36.8z
			 M82,38.6c0,0,0-0.1,0-0.1L82,38.6z"/>
	</g>
	<g>
		<path class="st0" d="M70,40.7c-0.4-0.3-0.9,0-1.4,0.2c-0.4,0.3-0.9,0.5-1.1,1c-0.1,0.3-0.1,0.6,0.1,0.9c0.2,0.5,0.8,1,1.5,1.1
			c0.2,0,0.4,0,0.6-0.1c0.3-0.2,0.3-0.5,0.3-0.8c0-0.3-0.1-0.5-0.1-0.7c0-0.2,0.1-0.4,0.2-0.5C70.2,41.3,70.3,41,70,40.7z
			 M69.9,42.5c0,0,0-0.1,0-0.1L69.9,42.5z"/>
	</g>
	<g>
		<path class="st0" d="M82.1,43.2c-0.1,0-0.1-0.1-0.2-0.1c-0.1-0.1-0.2-0.2-0.3-0.3c-0.8-0.5-2.2-0.1-2.5,0.7c0,0,0,0.1,0,0.2
			c0,0.1,0.2,0.1,0.3,0.2c0.1,0.1,0.2,0.2,0.3,0.3c0.1,0.2,0.2,0.3,0.3,0.5c0.3,0.3,0.8,0.4,1.3,0.3c0.7-0.2,1.4-0.9,1.1-1.5
			C82.3,43.3,82.2,43.3,82.1,43.2z"/>
	</g>
	<g>
		<path class="st0" d="M47.2,46C47.2,46,47.2,46,47.2,46c-0.1-0.1-0.2-0.2-0.3-0.2c-0.4-0.2-1.1,0-1.3,0.4c0,0,0,0.1,0,0.1
			c0,0.1,0.1,0.1,0.1,0.1c0.1,0,0.1,0.1,0.2,0.2c0,0.1,0.1,0.2,0.2,0.2c0.1,0.2,0.4,0.2,0.7,0.2c0.4-0.1,0.8-0.4,0.6-0.8
			C47.3,46.1,47.3,46.1,47.2,46z"/>
	</g>
	<g>
		<g>
			<path class="st1" d="M76.7,40.2c-0.2-0.1-0.5,0-0.7,0.1c-0.2,0.1-0.5,0.3-0.6,0.5c-0.1,0.2,0,0.3,0,0.5c0.1,0.3,0.4,0.5,0.8,0.6
				c0.1,0,0.2,0,0.3-0.1c0.1-0.1,0.2-0.3,0.2-0.4c0-0.1,0-0.3-0.1-0.4c0-0.1,0.1-0.2,0.1-0.3C76.9,40.5,76.9,40.3,76.7,40.2z
				 M76.7,41.1C76.7,41.1,76.7,41.1,76.7,41.1L76.7,41.1z"/>
		</g>
	</g>
	<g>
		<g>
			<path class="st1" d="M74.6,35.3c-0.2-0.1-0.5,0-0.7,0.1c-0.2,0.1-0.5,0.3-0.6,0.5c-0.1,0.2,0,0.3,0,0.5c0.1,0.3,0.4,0.5,0.8,0.6
				c0.1,0,0.2,0,0.3-0.1c0.1-0.1,0.2-0.3,0.2-0.4c0-0.1,0-0.3-0.1-0.4c0-0.1,0.1-0.2,0.1-0.3C74.7,35.6,74.8,35.4,74.6,35.3z
				 M74.6,36.2C74.6,36.2,74.6,36.2,74.6,36.2L74.6,36.2z"/>
		</g>
	</g>
	<g>
		<g>
			<path class="st1" d="M91.4,39.9c-0.2-0.1-0.4,0-0.6,0.1c-0.2,0.1-0.4,0.2-0.5,0.4c-0.1,0.1,0,0.3,0,0.4c0.1,0.2,0.3,0.5,0.7,0.5
				c0.1,0,0.2,0,0.3-0.1c0.1-0.1,0.1-0.2,0.1-0.4c0-0.1,0-0.2-0.1-0.3c0-0.1,0.1-0.2,0.1-0.2C91.5,40.1,91.5,40,91.4,39.9z
				 M91.4,40.7C91.3,40.7,91.3,40.6,91.4,40.7L91.4,40.7z"/>
		</g>
	</g>
	<g>
		<g>
			<path class="st1" d="M51,40.7c-0.2-0.1-0.4,0-0.6,0.1c-0.2,0.1-0.4,0.2-0.5,0.4c-0.1,0.1,0,0.3,0,0.4c0.1,0.2,0.3,0.5,0.7,0.5
				c0.1,0,0.2,0,0.3-0.1C51,42,51,41.8,51,41.7c0-0.1,0-0.2-0.1-0.3c0-0.1,0.1-0.2,0.1-0.2C51.1,41,51.2,40.8,51,40.7z M51,41.5
				C51,41.5,51,41.5,51,41.5L51,41.5z"/>
		</g>
	</g>
	<g>
		<g>
			<path class="st1" d="M46.6,43.7c-0.1-0.1-0.2,0-0.3,0c-0.1,0.1-0.2,0.1-0.3,0.2c0,0.1,0,0.1,0,0.2c0.1,0.1,0.2,0.2,0.3,0.2
				c0,0,0.1,0,0.1,0c0.1,0,0.1-0.1,0.1-0.2c0-0.1,0-0.1,0-0.2c0,0,0-0.1,0-0.1C46.6,43.9,46.7,43.8,46.6,43.7z M46.6,44.1
				C46.6,44.1,46.6,44.1,46.6,44.1L46.6,44.1z"/>
		</g>
	</g>
	<g>
		<path class="st1" d="M69.1,36.8C69,36.8,69,36.8,69.1,36.8c-0.1-0.1-0.2-0.2-0.3-0.2c-0.4-0.2-1.1,0-1.3,0.3c0,0,0,0.1,0,0.1
			c0,0.1,0.1,0.1,0.1,0.1c0.1,0,0.1,0.1,0.2,0.2c0,0.1,0.1,0.2,0.2,0.2c0.1,0.2,0.4,0.2,0.6,0.2c0.4-0.1,0.7-0.4,0.6-0.7
			C69.2,36.9,69.1,36.8,69.1,36.8z"/>
	</g>
	<g>
		<path class="st1" d="M87.6,42.6C87.5,42.6,87.5,42.6,87.6,42.6c-0.1-0.1-0.2-0.2-0.3-0.2c-0.4-0.2-1.1,0-1.3,0.3c0,0,0,0.1,0,0.1
			c0,0.1,0.1,0.1,0.1,0.1c0.1,0,0.1,0.1,0.2,0.2c0,0.1,0.1,0.2,0.2,0.2c0.1,0.2,0.4,0.2,0.6,0.2c0.4-0.1,0.7-0.4,0.6-0.7
			C87.7,42.7,87.6,42.7,87.6,42.6z"/>
	</g>
</g>
<path class="st2" d="M158.7,47.4c0,0-12.9-7.7-25.4-9.8c-20.3-3.4-50.5-6.3-79.2,2c-22.9,6.6-25.7,4.8-30,2.1c0,0-13.4-8.6-17.8-7.5
	C2,35.2,3.8,46.9,5.6,51.3S2.3,68.6,2.3,68.6s5.2,3.2,25.1-7.4c9.6-5.1,28.6,6.2,51.6,7.5c0,0,32.9,0.5,50.7-3.5
	c15.1-3.3,25.1-6.6,29.5-14l-10.5,3.6c0,0,5.6-5.8,9-6.3C160.5,48.2,158.7,47.4,158.7,47.4z"/>
<g>
	<g>
		<g>
			<path class="st5" d="M159.1,47.3c0,0-0.2-0.1-0.3,0c0,0,0,0.1,0.1,0.1c0.1,0.1,0.3,0.2,0.3,0.5c0,0.2-0.4,0.3-1,0.4
				c-0.3,0-0.7,0.1-1.1,0.2c-0.4,0.1-0.9,0.3-1.3,0.5c-1.9,0.9-4.4,2.6-7.4,5.6l-1.9,1.9l2.5-0.8c2.2-0.7,4.9-1.6,8.1-2.7
				c0.1,0,0.2-0.1,0.3-0.1c0,0.1-0.1,0.2-0.2,0.3c-0.1,0.1-0.1,0.2-0.2,0.3c-0.1,0.1,0,0.1-0.1,0.2c-0.1,0.1-0.3,0.3-0.4,0.4
				c-0.5,0.5-1.1,1-1.7,1.6c-1.3,1-2.9,2-4.8,3c-1.9,0.9-4,1.8-6.4,2.5c-2.4,0.8-4.9,1.5-7.7,2.2c-2.8,0.7-5.7,1.4-8.8,1.9
				c-6.2,1.1-13.1,1.7-20.6,2.2c-7.4,0.4-15.4,0.7-23.8,0.7c-1,0-2.1,0-3.1,0c-1,0-2.1-0.1-3.1-0.2c-2.1-0.2-4.2-0.5-6.4-0.8
				c-4.3-0.7-8.6-1.7-13-2.8c-4.4-1.1-8.8-2.4-13.4-3.5c-2.3-0.5-4.6-1-7-1.3c-2.4-0.3-4.9-0.3-7.4,0.3c-1.2,0.3-2.5,1-3.5,1.5
				c-1.1,0.5-2.1,1.1-3.2,1.6c-2.2,1-4.3,2-6.6,2.9c-2.2,0.9-4.5,1.6-6.8,2.1c-1.2,0.3-2.3,0.4-3.5,0.5C4.7,68.2,3,68,3.5,68
				l0.3-0.9l0.6-1.7c0.4-1.1,0.7-2.3,1.1-3.5c0.6-2.4,1.2-4.7,1.4-7.3c0-0.6,0.1-1.3,0-2c0-0.3,0-0.7-0.2-1c-0.1-0.3-0.2-0.7-0.3-1
				c-0.4-1.1-0.7-2.2-1-3.3c-0.5-2.3-0.8-4.6-0.8-7c0-1.1,0.1-2.3,0.4-3.3c0.3-1,0.8-1.9,1.5-2.1c0.8-0.2,2,0,3.1,0.3
				c1.1,0.3,2.2,0.7,3.3,1.2c2.2,0.9,4.3,2,6.3,3.2c1,0.6,2.1,1.2,3.1,1.8c1,0.6,2,1.3,3.1,1.9c2.2,1.3,4.9,1.7,7.3,1.6
				c2.4-0.1,4.8-0.4,7.1-0.9c4.6-0.9,9.1-2.1,13.5-3.4c8.7-2.6,17.5-4.1,26-5c8.5-0.9,16.8-0.9,24.6-0.6c7.8,0.3,15.2,1,22.1,2
				c13.9,1.2,24.7,6.3,32.5,10.5c0,0,0.5,0-0.2-0.6c-0.6-0.6-2.4-2-7-4.2c-0.8-0.4-3-1.4-6.5-2.7c-1.8-0.6-3.8-1.4-6.2-2
				c-2.4-0.7-5.2-1.2-8.1-1.7c-5.9-1-12.9-1.9-20.8-2.4c-7.8-0.6-16.4-0.8-25.6-0.2c-4.6,0.2-9.2,0.8-14,1.5
				c-4.7,0.8-9.6,1.7-14.3,3.1c-4.8,1.3-9.5,2.7-14.4,3.8c-2.4,0.5-4.9,1-7.4,1.2c-2.4,0.2-4.9,0.2-7-0.8c-1.1-0.5-2.1-1.2-3.2-1.8
				c-1.1-0.7-2.2-1.3-3.3-1.9c-2.2-1.3-4.5-2.5-6.8-3.5c-1.2-0.5-2.4-1-3.6-1.4c-0.3-0.1-0.6-0.2-1-0.2c-0.3-0.1-0.6-0.2-1-0.2
				c-0.4,0-0.7-0.1-1.1-0.1c-0.4,0-0.8,0-1.2,0.2c-0.8,0.2-1.5,0.8-1.9,1.5c-0.4,0.6-0.7,1.3-0.8,2c-0.3,1.3-0.4,2.6-0.4,3.9
				c0,2.6,0.4,5,1,7.5c0.3,1.2,0.7,2.4,1.1,3.6c0.3,0.9,0.3,2.1,0.2,3.2c-0.2,2.3-0.7,4.6-1.4,6.8c-0.3,1.1-0.7,2.2-1,3.3
				c-0.2,0.5-0.4,1.1-0.6,1.6l-0.3,0.8L1.3,69c0.4,0.2,0.8,0.4,1.3,0.6l0.7,0.2c0.2,0,0.3,0,0.5,0.1c0.6,0.1,1.2,0.1,1.8,0.1
				c1.2,0,2.3-0.2,3.4-0.4c2.2-0.4,4.2-1.1,6.2-1.8c4-1.4,7.6-3.2,11.1-4.9c0.9-0.4,1.7-0.9,2.5-1.2c0.8-0.3,1.6-0.6,2.5-0.7
				c1.7-0.3,3.5-0.2,5.1,0c3.4,0.4,6.5,1.1,9.4,1.9c5.8,1.5,10.7,2.9,14.5,3.8c3.8,0.9,6.5,1.4,7.8,1.6c1.9,0.3,4.9,0.8,8.8,1.2
				c1,0.1,2,0.2,3.1,0.2c1.1,0,2.2,0,3.4,0c2.3,0,4.8,0,7.4-0.1c5.2-0.1,11-0.3,17-0.7c6-0.4,12.1-1,18.2-2c3-0.5,6-1.2,8.9-1.9
				c2.9-0.7,5.7-1.5,8.4-2.3c5.3-1.7,10.2-3.9,13.6-7.1c0.4-0.4,0.8-0.8,1.2-1.3c0.5-0.6,0.9-1.2,1.3-1.7c0.4-0.6,0.8-1.2,1.2-1.8
				c-0.6,0.2-1.3,0.4-1.9,0.6c-2,0.7-3.8,1.3-5.3,1.8c-2.6,0.9-4.2,1.5-4.6,1.6l0.5,0.7c1.6-1.6,2.5-2.3,2.9-2.7
				c0.5-0.4,0.5-0.4,0.5-0.4s0.3-0.3,0.9-0.7c0.5-0.4,1.3-1,2.1-1.5c0.8-0.5,1.7-0.9,2.6-1c0.5-0.1,0.9-0.2,1.3-0.5
				c0.1-0.1,0.2-0.3,0.1-0.4c0-0.2-0.1-0.3-0.2-0.3C159.3,47.4,159.1,47.4,159.1,47.3z"/>
		</g>
	</g>
</g>
<g>
	<g>
		<g>
			<path class="st5" d="M28.4,50.1c0,0-0.3,0.2,0.3,0.5c0.6,0.3,2.1,0.6,5.6,0.6c1.8,0,7.3-0.3,14.8-1.4c3.8-0.5,8-1.2,12.5-2
				c2.3-0.4,4.6-0.9,7-1.2c1.2-0.2,2.4-0.4,3.6-0.6c1.2-0.1,2.4-0.3,3.7-0.4l1.8-0.2l1.9-0.1l3.7-0.3c2.5-0.1,5-0.2,7.4-0.2
				c4.9,0,9.7,0.3,14.2,0.7c4.5,0.4,8.6,1,12.1,1.5c1.8,0.3,3.4,0.6,4.9,0.8c1.5,0.3,2.8,0.5,4,0.7c0,0,0.1-0.2-0.1-0.5
				c-0.1-0.1-0.2-0.3-0.5-0.5c-0.3-0.2-0.7-0.4-1.4-0.6c-0.6-0.2-4.7-1.2-10.6-2.1c-5.9-0.9-13.6-1.8-21.4-1.8
				c-7.8-0.1-15.7,0.6-21.7,1.6c-1.5,0.3-2.9,0.5-4.2,0.7c-1.3,0.2-2.4,0.5-3.4,0.7c-2,0.4-3.3,0.6-3.8,0.7c-2,0.4-9.1,1.7-15.7,2.5
				c-3.3,0.4-6.5,0.7-8.8,0.8c-2.4,0.1-3.9,0.1-3.9,0.1s-0.5,0-1,0C29.1,50,28.6,50,28.4,50.1z"/>
		</g>
	</g>
</g>
<g>
	<g>
		<g>
			<path class="st5" d="M25.5,46.9c0,0,0.6-0.6-0.6-1.4c-0.3-0.2-1.3-0.8-2.8-1.5c-1.5-0.7-3.3-1.6-5.3-2.3c-4-1.5-8.4-2.8-10.4-2.9
				c0,0-0.3,0.8,0.1,1.2c0.2,0.2,3.3,1.1,6.4,2.2c3.1,1,6.2,2.2,6.6,2.3c0.4,0.1,1.8,0.7,3.1,1.3c1.3,0.6,2.4,1.2,2.4,1.2
				S25.3,47.1,25.5,46.9z"/>
		</g>
	</g>
</g>
<g>
	<g>
		<g>
			<path class="st5" d="M24.4,48.4c0,0,0.4-0.7-0.9-1.2S9.6,43,5.8,43.1c0,0-0.3,0.8,0.1,1.1c0.4,0.4,11.7,3,12.5,3.1
				c0.8,0.1,5.5,1.2,5.5,1.2S24.3,48.7,24.4,48.4z"/>
		</g>
	</g>
</g>
<g>
	<g>
		<g>
			<path class="st5" d="M69.5,57.7c0,0,0.6-0.8-3.7-0.9c-0.6,0-1.7-0.1-3.3-0.2c-1.6-0.1-3.6-0.3-6-0.6c-4.7-0.6-10.7-1.6-16.9-2.8
				c-3.1-0.6-6.2-1.3-9.3-2c-1.5-0.3-3-0.7-4.6-0.9c-0.8-0.1-1.5-0.3-2.3-0.4c-0.9-0.1-1.5,0-2.2-0.1c-5.7-0.2-10.5-0.7-13.5-0.5
				c0,0-0.1,0.2,0.1,0.4C8,50,8.3,50.3,9.1,50.5c0.4,0.1,3,0.4,6.8,0.7c1.9,0.2,4,0.4,6.4,0.4l0.5,0l0.4,0c0.2,0,0.5,0,0.8,0.1
				c0.6,0.1,1.1,0.2,1.7,0.3c1.2,0.2,2.4,0.5,3.6,0.7c4.8,1,9.6,2.1,13.5,2.7c3.8,0.7,6.6,1.1,7.3,1.2c1.3,0.2,5.8,0.8,10,1.1
				c2.1,0.2,4.1,0.2,5.7,0.2c0.8,0,1.4,0,1.8,0c0.4,0,0.7,0,0.7,0S69.3,58,69.5,57.7z"/>
		</g>
	</g>
</g>
<g>
	<g>
		<g>
			<path class="st5" d="M23.4,53.4c0,0-0.1-0.8-1.2-0.5c-0.5,0.2-3.3,1.1-6.3,1.6c-1.5,0.3-3.1,0.4-4.5,0.4C10,54.9,8.8,54.8,8,55
				c0,0,0,0.8,0.3,1.1c0.1,0.1,2.7,0.6,5.2,0.4c2.6-0.2,5-1,5.3-1.1c0.3-0.1,1.4-0.5,2.4-0.9c0.5-0.2,1-0.4,1.3-0.5
				c0.4-0.2,0.6-0.2,0.6-0.2S23.4,53.6,23.4,53.4z"/>
		</g>
	</g>
</g>
<g>
	<g>
		<g>
			<path class="st5" d="M25,55.4c0,0-0.3-0.8-1.5-0.2c-0.3,0.1-1.3,0.6-2.6,1.1c-1.4,0.5-3.2,1-5.1,1.5c-3.8,0.9-8,1.7-9.7,2.3
				c0,0-0.1,0.8,0.5,1c0.3,0.1,3.4-0.3,6.4-0.9c3.1-0.6,6.1-1.6,6.4-1.8c0.4-0.2,1.7-0.7,3-1.3c0.6-0.3,1.2-0.6,1.6-0.8
				c0.4-0.3,0.7-0.4,0.7-0.4S25,55.7,25,55.4z"/>
		</g>
	</g>
</g>
<g>
	<g>
		<g>
			<path class="st5" d="M26.7,56.9c0,0-0.3-0.8-1.5-0.1c-0.6,0.4-3.7,2.1-7.3,3.3c-3.6,1.3-7.7,1.8-9.5,2.3c0,0-0.1,0.8,0.4,1.1
				c0.3,0.1,3.4,0,6.4-0.8c3.1-0.7,5.9-2.1,6.3-2.3c0.2-0.1,0.6-0.3,1.1-0.6c0.5-0.3,1.1-0.6,1.7-1c0.6-0.3,1.1-0.7,1.5-1
				c0.4-0.3,0.6-0.4,0.6-0.4S26.7,57.2,26.7,56.9z"/>
		</g>
	</g>
</g>
<g>
	<path class="st6" d="M60.5,62.8c0,0-7.6,10-16.2,10.9c-0.5,0.1-1-0.3-1.1-0.7c-0.8-2.2-2.9-8.3-2.9-9.8c0-0.4,0-0.7,0-1
		c0.1-0.7,0.6-1.2,1.2-1.4c1.1-0.2,2.1,0.1,4.6-1.5L60.5,62.8z"/>
</g>
<g>
	<g>
		<g>
			<path class="st5" d="M58.1,65.3c0,0,0.8-0.6-3-1.7c-0.9-0.2-3.9-1-7.9-2.1c-0.5-0.1-1-0.3-1.6-0.4c-0.3-0.1-0.5-0.1-0.8-0.2
				l-0.4-0.1c-0.2,0-0.5-0.2-0.8-0.1L43,61.1l-0.4,0.2c-0.2,0.1-0.5,0.2-0.8,0.4c-0.5,0.2-1,0.4-1.6,0.4c-0.3,0-0.6,0.1-1,0.1
				c-0.3,0-0.9,0.2-1.3,0.5c-0.4,0.3-0.7,0.8-0.9,1.3c-0.2,0.6-0.1,0.8-0.1,1.2c0,0.3,0,0.8,0.1,1.2c0.1,0.4,0.1,0.7,0.2,1.1
				c0.2,0.7,0.4,1.4,0.6,2c0.4,1.3,0.9,2.7,1.3,4l0.7,2l0.1,0.2c0,0.1,0.1,0.3,0.2,0.4c0.2,0.3,0.4,0.5,0.7,0.7
				c0.3,0.2,0.6,0.3,0.9,0.3c0.4,0,0.5,0,0.7-0.1c2.9-0.5,5.4-1.7,7.6-3.1c4.2-2.9,7-6.3,8.4-8.4c0,0-0.5-0.7-1.6,0.3
				c-0.3,0.2-1.7,1.9-4.1,4.1c-2.4,2.1-5.8,4.6-9.8,5.4l-0.7,0.1l-0.2,0l-0.1,0c0,0,0,0-0.1,0c0,0-0.1-0.1-0.1-0.1l-0.3-0.7
				c-0.4-1-0.7-2-1-2.9c-0.7-1.9-1.3-3.7-1.6-5.3c-0.1-0.4-0.1-0.6-0.1-1c0-0.2,0-0.4,0-0.5c0-0.1,0-0.2,0.1-0.3
				c0.1-0.2,0.2-0.3,0.4-0.4c0.1,0,0.1-0.1,0.2-0.1c0.1,0,0.2,0,0.4-0.1c0.5-0.1,1.1-0.1,1.4-0.2c0.4-0.1,0.7-0.2,0.8-0.3
				c0.3-0.1,0.7-0.3,1.3-0.6c0.3-0.1,0.6-0.4,0.7-0.4c0,0,0.1,0,0.1,0l0.2,0c0.2,0,0.4,0.1,0.6,0.1c1.6,0.4,3.4,0.8,5.2,1.2
				c3.6,0.8,6.9,1.6,6.9,1.6S57.9,65.5,58.1,65.3z"/>
		</g>
	</g>
</g>
<g>
	<path class="st6" d="M96.4,66.3C96,66.7,89.9,76.5,81.5,76c0,0-1-4.1,0.1-7.2c0,0-0.4-1.6,3.3-2.2c0.8-0.1,2.2,0,3.2,0
		C91.9,66.3,96.4,66.3,96.4,66.3z"/>
</g>
<g>
	<path class="st6" d="M127.9,57.1c0,0-10.9-0.9-14.7-2c-0.4-0.1-0.9,0.3-0.7,0.7c0.7,2.7,2.9,9.6,8.3,9.2c6.7-0.6,10.1-3.6,10.1-3.6
		L127.9,57.1z"/>
</g>
<g>
	<g>
		<g>
			<path class="st5" d="M95.3,68.8c0,0,0.5-0.8-2.5-0.9c-0.6,0-2.3,0-4.6,0c-0.6,0-1.2,0-1.8,0c-0.6,0-1.3-0.1-2.2,0
				c-0.9,0.1-1.6,0.2-2.5,0.6c-0.4,0.2-0.9,0.4-1.3,0.8c-0.2,0.2-0.4,0.4-0.5,0.8c-0.1,0.2-0.1,0.3-0.2,0.5c0,0.2-0.1,0.3,0,0.7
				l0-0.5c-0.4,1.3-0.6,2.6-0.6,3.9c0,0.7,0,1.3,0.1,2c0,0.3,0.1,0.7,0.1,1l0.2,0.8l0.1,0.4l0.1,0.2c0,0.1,0,0.2,0.1,0.2
				c0.3,0,0.6,0,0.9,0l0.7,0c0.3,0,0.7,0,1-0.1c0.7-0.1,1.3-0.2,2-0.4c1.3-0.3,2.4-1,3.5-1.6c4.2-2.7,6.6-6.4,7.6-8.3
				c0,0-0.1-0.2-0.3-0.3c-0.3-0.1-0.6,0-1,0.4C93.9,69,93.2,70,92,71.3c-1.2,1.3-2.9,3-5,4.3c-1.1,0.6-2.2,1.2-3.5,1.5
				c-0.3,0.1-0.6,0.1-0.9,0.2c-0.3,0-0.6,0.1-0.9,0.1l-0.5,0c-0.1,0,0,0-0.1,0c0,0,0,0-0.1-0.1L81,77l-0.1-0.5
				c0-0.3-0.1-0.6-0.1-0.9c-0.1-0.6-0.1-1.1,0-1.7c0-1.1,0.2-2,0.4-2.7l0-0.4c0,0.1,0-0.1,0-0.1c0-0.1,0.1-0.1,0.1-0.2
				c0.1-0.1,0.3-0.3,0.4-0.4c0.3-0.2,0.6-0.3,0.7-0.3c0.4-0.1,1.2-0.5,2.4-0.5c0.6,0,1.3,0,2,0c0.7,0,1.4-0.1,2.1-0.1
				c2.8-0.1,5.4-0.2,5.4-0.2S95.1,69,95.3,68.8z"/>
		</g>
	</g>
</g>
<g>
	<g>
		<g>
			<path class="st5" d="M129.2,54.7c0,0-0.9,0,0.8,2.8c0.1,0.2,0.4,0.6,0.7,1.1c0.2,0.4,0.3,0.2-0.2,0.5c-1.5,0.9-3.6,1.8-6.1,2.3
				c-0.6,0.1-1.3,0.2-1.9,0.3c-0.7,0.1-1.3,0.1-1.9,0c-0.6-0.1-1.2-0.3-1.7-0.7c-0.5-0.4-1-0.8-1.5-1.3c-0.9-1-1.6-2.3-2.1-3.7
				c-0.3-0.7-0.5-1.4-0.7-2.1l0-0.1l0,0l0,0c0,0,0,0,0,0c0,0,0,0,0,0c0,0,0,0,0.1,0l0.3,0.1l0.6,0.1c0.4,0.1,0.8,0.1,1.1,0.2
				c0.7,0.1,1.5,0.2,2.2,0.3c1.4,0.2,2.8,0.3,4,0.4c2.5,0.2,4.6,0.2,6.1,0.2c0,0,0.3-0.8-0.9-1.1c-0.3-0.1-2-0.3-4.4-0.5
				c-1.2-0.1-2.6-0.3-4.1-0.5c-0.8-0.1-1.5-0.2-2.3-0.4c-0.4-0.1-0.8-0.1-1.2-0.2l-0.6-0.1l-0.3-0.1l-0.5-0.1
				c-0.5-0.1-0.8-0.1-1.2,0.1c-0.3,0.2-0.6,0.6-0.7,1c0,0.4,0.1,0.9,0.2,1.3l0.2,0.7c0.3,0.9,0.7,1.9,1.1,2.7
				c0.8,1.7,1.9,3.3,3.3,4.3c1.4,1.1,3,1.4,4.1,1.3c1.1-0.1,1.8-0.2,2-0.3c0.5-0.1,1.6-0.3,2.9-0.7c1.3-0.4,2.8-1,4.2-1.8l0.5-0.3
				l0.3-0.2c0.1-0.1,0.2-0.2,0.3-0.2c0.2-0.2,0.4-0.3,0.6-0.5c0.2-0.1,0-0.2-0.1-0.3l-0.2-0.3c-0.5-0.6-0.9-1.2-1.2-1.7
				c-0.6-0.9-1.1-1.5-1.1-1.5S129.5,54.7,129.2,54.7z"/>
		</g>
	</g>
</g>
<g>
	<g>
		<g>
			<path class="st5" d="M156.5,49.2c0,0,0-0.2-0.2-0.3c-0.2-0.1-0.6-0.2-1.4,0.2c-0.4,0.2-1.6,0.8-3,2c-1.3,1.1-3,2.7-4.7,4
				c-0.4,0.3-0.9,0.6-1.3,0.7c-0.2,0.1-0.4,0.1-0.5,0.1c-0.2,0-0.4-0.1-0.4-0.1c0,0,0,0,0,0c0-0.1,0-0.3,0.1-0.5
				c0.1-0.4,0.4-0.9,0.6-1.3c1-1.7,2.1-3.1,2.7-4.1c0,0-0.5-0.7-1.1-0.4c-0.2,0.1-0.9,0.8-1.8,1.9c-0.4,0.6-0.9,1.2-1.4,2
				c-0.2,0.4-0.5,0.8-0.6,1.4c-0.1,0.3-0.2,0.6-0.2,0.9c0,0.3,0.1,0.9,0.4,1.2c0.3,0.3,0.7,0.6,1,0.6c0.3,0.1,0.6,0.1,0.9,0.1
				c0.6,0,1.2-0.2,1.6-0.4c0.9-0.5,1.5-1,2.1-1.5c1.1-1,1.8-1.7,2-1.9c0.2-0.2,0.5-0.6,1-1c0.5-0.5,1-1,1.6-1.5
				c1.2-0.9,2.4-1.6,2.4-1.6S156.5,49.5,156.5,49.2z"/>
		</g>
	</g>
</g>
<g>
	<g>
		<g>
			<path class="st5" d="M96.5,34.4c0,0,0.2-0.2-0.2-0.4c-0.5-0.2-1.6-0.4-4.3-0.5c-1.2,0-4.6,0-9.3,0.3c-0.6,0-1.2,0.1-1.8,0.1
				c-0.3,0-0.6,0-1,0l-0.2,0l-0.1,0l0,0c0,0,0,0,0,0.1l0,0l0,0l0,0l0,0c0.1,0,0.2,0,0,0l-0.1,0c-0.1,0,0.1,0-0.4,0
				c-0.8,0.1-1.5,0.1-2.3,0.2c-1.4,0.1-2.9,0.3-4.4,0.4c-0.7-0.6-1.4-1.1-2.1-1.7L70,32.8c-0.1-0.1-0.1-0.1-0.2-0.2
				c-0.1-0.1-0.2-0.2-0.2-0.4c-0.1-0.3-0.1-0.6,0.1-0.8c0.1-0.1,0.1-0.2,0.3-0.4l0.5-0.6l1.1-1.2c0.7-0.8,1.4-1.5,2.2-2.3
				c1.5-1.5,3-2.9,4.6-4.1c0.8-0.6,1.6-1.2,2.4-1.4c0.2,0,0.4-0.1,0.5-0.1c0.1,0,0.1,0,0.2,0c0.1,0,0.2,0.1,0.2,0.1
				c0.3,0.1,0.7,0.3,1.1,0.5c1.6,1,3,2.2,4.3,3.4c1.3,1.2,2.5,2.4,3.7,3.5c2.2,2.2,4.1,4.1,5.5,5.5c0,0,0.8-0.3-0.3-2
				c-0.2-0.3-1.5-1.8-3.5-4c-1-1.1-2.2-2.3-3.6-3.6c-1.4-1.3-2.9-2.7-4.7-4c-0.2-0.2-0.5-0.3-0.7-0.5c-0.3-0.1-0.5-0.3-0.8-0.4
				c-0.4-0.1-0.6-0.3-1.1-0.3c-0.2,0-0.4,0-0.6,0l-0.5,0.1c-1.3,0.4-2.2,1.1-3.2,1.8c-1.9,1.4-3.5,3-5.1,4.6
				c-0.8,0.8-1.5,1.6-2.3,2.4c-0.4,0.4-0.7,0.8-1.1,1.2L68.6,30c-0.1,0.1-0.2,0.3-0.3,0.4c-0.2,0.3-0.3,0.7-0.4,1
				c-0.1,0.7,0.1,1.4,0.4,2c0.2,0.3,0.5,0.5,0.7,0.7c0.2,0.1,0.4,0.3,0.6,0.4c0.8,0.6,1.6,1.3,2.3,1.8c4.3-0.5,7.3-0.8,8.1-0.9
				c0.3,0,0.8-0.1,1.3-0.1c0.3,0,0.5-0.1,0.8-0.1l0.2,0c0.1,0,0.2,0,0.2,0l0.2-0.1c0.1-0.1,0.2-0.1,0.4-0.2l0.2-0.1l0.1-0.1l0.1,0
				l0,0l0,0c0.1,0-0.9-0.2-0.5-0.1l0,0l0,0c-0.2,0.1-0.3,0.2-0.5,0.5c0,0,0,0.1-0.1,0.1c-0.1,0-0.2,0-0.3,0c-0.2,0-0.5,0-0.7,0.1
				c-0.5,0-1,0.1-1.5,0.1l-0.1,0c0-0.1,0-0.1,0-0.1l0,0l0.1,0l0.2,0l0.5,0c0.3,0,0.6,0,0.9-0.1c1.2-0.1,2.5-0.2,3.8-0.2
				c5-0.3,9.7-0.4,9.7-0.4S96.2,34.7,96.5,34.4z"/>
		</g>
	</g>
</g>
<g>
	<g>
		<g>
			<path class="st5" d="M92.1,34.3c0,0,0.2,0,0.4-0.2c0.1-0.1,0.1-0.2,0.1-0.4c0-0.2-0.1-0.4-0.2-0.6c-0.5-1-7.2-8.5-9.9-9.7
				c0,0-0.6,0.5-0.5,1c0.1,0.4,6.5,6.4,6.9,6.8c0.5,0.4,3,3,2.9,3C91.7,34.2,91.8,34.4,92.1,34.3z"/>
		</g>
	</g>
</g>
<g>
	<g>
		<g>
			<path class="st5" d="M87,35c0,0,0.9,0,0.5-1.1c-0.1-0.3-0.5-1-1.1-1.8c-0.6-0.9-1.5-1.9-2.4-2.8c-1.9-1.9-4.2-3.7-5.4-4.1
				c0,0-0.6,0.6-0.5,1c0.1,0.2,1.6,1.5,3.1,2.9c1.5,1.4,3,2.8,3.2,3c0.2,0.2,0.9,0.8,1.4,1.5c0.3,0.3,0.5,0.7,0.6,0.9
				c0.2,0.3,0.2,0.4,0.2,0.4C86.7,34.8,86.8,35,87,35z"/>
		</g>
	</g>
</g>
<g>
	<g>
		<g>
			<path class="st5" d="M82.8,34.5c0,0,0.2-0.1,0.3-0.3c0.1-0.2,0.2-0.4,0-0.7c0-0.1-0.1-0.3-0.2-0.5c-0.1-0.3-0.3-0.6-0.6-1
				c-0.5-0.8-1.4-1.6-2.3-2.3c-1.8-1.4-3.8-2.8-4.9-3c0,0-0.5,0.6-0.5,1c0.1,0.4,5.6,4.1,5.8,4.4c0.2,0.1,0.8,0.6,1.2,1.2
				c0.4,0.6,0.9,1.2,0.9,1.2C82.4,34.5,82.6,34.7,82.8,34.5z"/>
		</g>
	</g>
</g>
<g>
	<g>
		<g>
			<path class="st5" d="M84.6,74.9c0,0,0.2,0.8,0.9,0.6c0.3-0.1,2-0.7,3.5-1.8c1.5-1.1,2.8-2.7,2.9-3.7c0,0-0.6-0.5-1-0.5
				c-0.2,0-1,1-1.9,2c-0.9,0.9-2,1.7-2.2,1.9c-0.1,0.1-0.6,0.5-1.1,0.8c-0.5,0.3-1,0.5-1,0.5S84.5,74.6,84.6,74.9z"/>
		</g>
	</g>
</g>
<g>
	<g>
		<path class="st7" d="M87.5,69.8"/>
	</g>
</g>
<g>
	<g>
		<g>
			<path class="st5" d="M43.4,71.5c0,0,0.1,0.8,1,0.6c0.5-0.1,2.9-0.8,5.1-2.3c2.3-1.4,4.3-3.6,4.7-4.8c0,0-0.6-0.6-1-0.5
				c-0.2,0-1.5,1.5-3,2.7c-1.5,1.2-3.2,2.2-3.4,2.4c-0.2,0.2-1,0.6-1.8,1c-0.8,0.4-1.5,0.6-1.5,0.6S43.4,71.3,43.4,71.5z"/>
		</g>
	</g>
</g>
<g>
	<g>
		<g>
			<path class="st5" d="M42.2,67.9c0,0,0.1,0.8,0.8,0.7c0.3,0,2.1-0.4,3.9-1.2c1.8-0.8,3.5-1.9,4-2.8c0,0-0.4-0.7-0.7-0.8
				c-0.2,0-1.4,0.7-2.6,1.4c-1.2,0.7-2.6,1.3-2.7,1.4c-0.2,0.1-0.8,0.4-1.3,0.6c-0.6,0.2-1.1,0.4-1.1,0.4S42.2,67.7,42.2,67.9z"/>
		</g>
	</g>
</g>
<g>
	<g>
		<g>
			<g>
				<g>
					<g>
						<path class="st5" d="M118.4,57.9c0,0-0.3,0.8,0.6,1c0.4,0.1,2.6,0.6,5.1,0.6c2.5,0.2,5.2,0,6.3-0.5c0,0-0.2-0.8-0.6-1
							c-0.2-0.1-2.1-0.1-3.9-0.1c-1.8,0-3.6-0.1-3.8-0.1c-0.2,0-1.1,0-1.8,0c-0.8,0-1.5-0.1-1.5-0.1S118.5,57.6,118.4,57.9z"/>
					</g>
				</g>
			</g>
		</g>
	</g>
</g>
<circle class="st6" cx="138" cy="48.9" r="3.9"/>
<g>
	<g>
		<g>
			<g>
				<g>
					<g>
						<path class="st5" d="M138.8,43.9c0,0,0,0.2,0.1,0.4c0.2,0.2,0.5,0.4,1,0.5c0.3,0.1,1.3,0.4,1.8,1.6c0.2,0.6,0.3,1.3,0,2
							c-0.3,0.7-0.9,1.2-1.6,1.4c-0.7,0.2-1.5,0-1.9-0.4c-0.5-0.4-0.7-1-0.7-1.5c0-1.1,0.8-1.5,1.2-1.8c0,0-0.1-0.2-0.2-0.4
							c-0.1-0.2-0.3-0.4-0.6-0.5c-0.1,0-0.9,0.2-1.6,1.2c-0.3,0.5-0.5,1.2-0.4,2c0.1,0.8,0.5,1.6,1.2,2.2c0.7,0.6,1.6,1,2.5,0.9
							c0.9,0,1.8-0.4,2.4-0.8c1.2-1,1.4-2.2,1.5-2.5c0-0.3,0.1-0.8-0.1-1.6c-0.2-0.7-0.6-1.5-1.2-2.1c-0.6-0.6-1.4-0.9-1.9-1
							c-0.6-0.1-1-0.1-1-0.1S138.8,43.6,138.8,43.9z"/>
					</g>
				</g>
			</g>
		</g>
	</g>
</g>
<circle class="st5" cx="139" cy="47.5" r="0.8"/>
<g>
	<path class="st5" d="M45.1,2.5c-0.8,0-4.8,0.3-9,1.4c-4.2,1.1-8.5,3.2-9.9,4.9c0,0,0.5,1.3,1.2,1.5c0.3,0.1,3.2-1.3,6.3-2.4
		c0.4-0.2,0.8-0.3,1.2-0.4C35,7.7,35,8,35.2,8.4c0.3,0.9,0.8,2.1,1.3,3.1c1.1,2.2,2.3,4.3,2.5,4.6c0.2,0.3,0.8,1.2,1.2,2.1
		c0.5,0.9,0.9,1.7,0.9,1.7s0.1,0.3,0.5,0.2c0,0,1.4-0.3,1.1-1.5c-0.1-0.6-1.1-3.3-2.3-6.1c-1-2.3-2.2-4.5-3.1-5.8
		c1.6-0.5,2.8-0.9,3-1c0.4-0.2,1.9-0.6,3.2-0.9c1.4-0.3,2.7-0.5,2.7-0.5s0.4,0,0.4-0.4C46.6,3.9,46.7,2.5,45.1,2.5z"/>
	<path class="st5" d="M68.4,12.7c-0.4-0.2-1.5-0.7-2.9-1.4c-0.7-0.3-1.6-0.7-2.5-1.1l-0.2-0.1c-0.1,0-0.1-0.1-0.1-0.1l0,0l0,0
		c0,0-0.1,0,0-0.1l0.1,0l0.1-0.1l0.4-0.4c0.3-0.3,0.5-0.6,0.7-0.9c0.5-0.6,0.9-1.4,1.2-2.1c0.3-0.7,0.6-1.6,0.6-2.7
		c0-0.5-0.2-1.3-0.6-1.9c-0.4-0.6-1-1-1.7-1.2c-0.8-0.2-1.3-0.1-1.6-0.1c-0.4,0-0.7,0-1.1,0.1c-0.8,0.1-1.7,0.2-2.5,0.5
		c-0.9,0.3-1.7,0.9-2.4,1.7c-0.6,0.8-1.1,1.9-1,2.9c0.1,1,0.4,1.7,0.6,2.3c0.5,1.3,1,2.4,1.4,3.5c0.9,2.1,1.5,3.8,1.9,5.1
		c0,0,0.4,0,0.8-0.1c0.4-0.1,0.9-0.4,1-1.1c0.1-0.3-0.1-1.8-0.8-3.8c0.5,0.2,1.1,0.4,1.7,0.7c1.1,0.4,2.4,0.9,3.6,1.4
		c2.3,0.9,4.2,1.6,4.2,1.6s0.7,0.3,1,0C70.1,15.2,71.1,14.1,68.4,12.7z M61,7.6c-0.1,0.2-0.2,0.2-0.4,0.4c-0.2,0.2-0.4,0.4-0.6,0.5
		c-0.2,0.2-0.4,0.3-0.5,0.4c-0.2,0.1-0.3,0.2-0.4,0.2c-0.1,0.1-0.2,0.1-0.3,0.2c-0.3-0.9-0.6-1.8-0.9-2.8c-0.2-0.7-0.3-1.2-0.2-1.4
		c0.1-0.3,0.4-0.7,0.8-1c0.4-0.3,1-0.5,1.7-0.6c0.3-0.1,0.7-0.1,1.1-0.1c0.4,0,0.8-0.1,1,0c0.1,0,0.2,0,0.2,0.2c0,0.2,0,0.4,0,0.7
		c0,0.2-0.1,0.5-0.2,0.8C62,6.2,61.5,7,61,7.6z"/>
	<path class="st5" d="M86.5,1.8c-0.1,0-0.1-0.1-0.1-0.1c0-0.1,0-0.1,0-0.2c0-0.1-0.1-0.2-0.3-0.4c-0.2-0.2-0.5-0.4-0.8-0.6
		c-0.2-0.1-0.4-0.2-0.7-0.3c-0.1,0-0.3-0.1-0.4-0.1c-0.2,0-0.3,0-0.5-0.1c-0.3,0-0.7-0.1-1,0c-0.4,0.1-0.7,0.1-1,0.3
		c-1.3,0.6-2.3,1.8-2.9,3.1c-0.6,1.3-0.9,2.8-0.6,4.5c0.2,0.8,0.5,1.6,0.9,2.3c0.4,0.6,1,1.2,1.6,1.6c1.2,0.9,2.7,1.3,4,1.1
		c1.3-0.2,2.4-0.9,2.9-1.6c0.5-0.6,0.7-1.2,0.8-1.3c0.1-0.4,0.5-1.2,0.6-2.2c0.1-1.1,0-2.4-0.5-3.5C88,3.2,87.2,2.3,86.5,1.8z
		 M86.3,7.9c-0.1,0.5-0.4,1-0.7,1.4c-0.6,0.7-1.3,0.9-2.3,0.6C82.9,9.8,82.4,9.5,82,9c-0.2-0.2-0.4-0.4-0.5-0.7
		c-0.1-0.1-0.1-0.2-0.2-0.3c-0.1-0.1-0.1-0.2-0.1-0.4c-0.3-1-0.1-2.3,0.3-3.3c0.5-1,1.2-1.7,1.8-1.7c0.5-0.1,1,0.1,1.5,0.4
		c0.1,0.1,0.2,0.2,0.3,0.3c0.3,0.3,1.4,1.4,1.4,3.2C86.5,6.9,86.5,7.4,86.3,7.9z"/>
	<path class="st5" d="M110.4,4.3c-0.2,0.5-0.7,2.1-1.3,4.4c-0.3,1-0.7,2.2-1.3,2.8c-0.3,0.3-0.6,0.5-1,0.6c-0.4,0.1-1,0.1-1.7,0
		c-0.7-0.1-1.4-0.2-1.9-0.4c-0.5-0.2-0.7-0.3-0.9-0.7c-0.2-0.3-0.3-0.9-0.4-1.5c0-0.6,0-1.3,0-2c0.1-2.8,0-5.1-0.3-6.6
		c0,0-1.4-0.3-1.9,0.5c-0.1,0.2-0.3,1.5-0.5,3.3c-0.1,0.9-0.2,1.9-0.3,3.1c-0.1,1.2-0.2,2.5,0.4,4.1c0.3,0.8,0.9,1.6,1.6,2.1
		c0.7,0.5,1.5,0.7,2.1,0.8c0.7,0.1,1.2,0.2,1.8,0.2c0.6,0,1.2,0.1,1.8,0c1.2-0.1,2.2-0.7,2.8-1.3c0.6-0.6,0.8-1,0.9-1.2
		c0.2-0.3,0.5-1.1,0.8-2c0.2-0.9,0.4-2,0.6-3c0.4-2,0.8-3.8,0.8-3.8s0.2-0.5-0.2-0.8C112.4,2.9,111.1,2.2,110.4,4.3z"/>
	<path class="st5" d="M133.7,4c-0.4-0.2-2.7-1-5.2-1.5c-2.5-0.5-5.3-0.6-6.6,0.2c0,0-0.2,1.4,0,1.9c0.1,0.2,2,0.4,4,0.6
		c0.1,0,0.2,0,0.3,0c-0.5,1.9-1.1,6.1-1.1,6.5c0,0.5-0.4,3.4-0.4,3.4s-0.1,0.2,0.3,0.3c0,0,1.3,0.5,1.7-0.3c0.4-0.7,2.5-6.6,2.1-9.7
		c0.7,0.1,1.2,0.1,1.3,0.1c0.3,0,1.2,0.1,2,0.2c0.8,0.1,1.6,0.2,1.6,0.2s0.2,0.1,0.4-0.3C134,5.7,134.5,4.4,133.7,4z"/>
</g>
<g>
	<path class="st5" d="M30.2,84c0,0,0.3-1.4-1.2-1.6c-0.8-0.1-4.7-0.4-9-0.4c-4.3,0.1-8.9,0.6-10.8,1.6c0,0,0,1.4,0.6,1.8
		c0.3,0.2,3.5,0,6.9-0.2c0.5,0,1-0.1,1.5-0.1C18,86.6,17.9,90,18,93.4c0,1-0.1,1.8-0.4,2.3c-0.3,0.6-0.9,1-1.5,1.3
		c-1.2,0.5-2.4,0.5-2.7,0.6c-0.3,0-0.9,0.1-1.6,0c-0.4,0-0.7-0.1-0.9-0.2c-0.2-0.1-0.4-0.2-0.5-0.5c-0.3-0.6-0.2-1.4-0.2-2.1
		c0-0.7,0-1.2,0-1.2s0-0.2-0.1-0.3C10,93.2,9.9,93,9.7,93c0,0-0.4,0-0.7,0.2c-0.3,0.2-0.7,0.5-0.9,1.4c0,0.2-0.2,0.7-0.2,1.6
		c0,0.5,0.1,1,0.3,1.7c0.2,0.6,0.9,1.5,1.7,1.8c0.8,0.3,1.5,0.4,2.1,0.4c0.6,0.1,1.3,0.1,2,0.1c1.4,0,3.2-0.4,4.7-1.5
		c0.7-0.6,1.4-1.4,1.7-2.3c0.4-0.9,0.4-1.8,0.4-2.6c0-1.5,0-2.8-0.1-4c-0.1-1.9-0.3-3.6-0.5-4.8c1.7-0.1,3-0.2,3.3-0.3
		c0.4-0.1,2-0.2,3.4-0.2c1.4,0,2.7-0.1,2.7-0.1S30.2,84.4,30.2,84z"/>
	<path class="st5" d="M41.8,88.8c-1.1-1.5-2.6-2.9-4.2-3.4c-1.6-0.6-3.1-0.3-4,0.2c0,0,0.2,0.7,0.6,1.1c0,0,0,0,0,0
		c-0.4,0.2-1.1,0.5-2,1.3c-0.9,0.8-1.8,2.1-2.3,3.9c-0.2,0.9-0.3,1.9-0.2,2.9c0.1,0.5,0.2,1,0.4,1.6c0.2,0.6,0.6,1.2,1.1,1.6
		c1,0.9,2.2,1.4,3.4,1.6c1.2,0.2,2.3,0,3.3-0.1c1-0.2,2.2-0.3,3.4-1c1.3-0.8,2-2.1,2.3-3.4c0.3-1.3,0.1-2.6-0.3-3.6
		C42.9,90.5,42.3,89.6,41.8,88.8z M40.1,95.5c-0.2,0.3-0.6,0.6-1.1,0.7c-0.5,0.2-1.2,0.3-1.8,0.4c-0.6,0.1-1.2,0.2-1.7,0.2
		c-1,0-1.7-0.2-2.2-0.5c-0.4-0.3-0.6-0.6-0.7-0.7c-0.2-0.2-0.5-0.9-0.5-1.8c-0.1-0.9,0.2-2.1,0.7-3.1c0.5-1,1.4-1.7,2.1-2.1
		c0.7-0.4,1.2-0.5,1.2-0.5s0.2,0,0.3-0.1c0.1,0,0.1-0.1,0.2-0.1c0.2,0.1,0.5,0.3,0.7,0.5c0.7,0.6,1.5,1.5,2.1,2.6
		c0.7,1.1,1.1,2.2,1,3.2C40.6,94.7,40.4,95.1,40.1,95.5z"/>
	<path class="st5" d="M63.5,88.5c-0.2-0.7-0.4-1.2-0.4-1.2s-0.1-0.6-0.6-0.6c0,0-0.4,0-0.7,0.3c-0.3,0.3-0.6,0.8-0.4,1.9
		c0.1,0.5,0.5,2.2,0.4,4.2c0,1-0.2,2.3-0.7,2.9c-0.4,0.6-1.5,1-2.5,0.9c-0.5-0.1-1-0.2-1.5-0.5c-0.5-0.3-0.9-0.7-1.3-1.1
		c-0.8-0.9-1.4-2.1-1.8-3.3c-0.8-2.4-1.2-4.9-1.9-6.3c0,0-1.4,0.1-1.8,0.9c-0.1,0.2,0,1.4,0.2,3.3c0.2,1.9,0.8,4.6,2.5,6.9
		c0.9,1.1,2,2.1,3.4,2.6c1.4,0.5,2.8,0.5,4,0.2c1.2-0.3,2.1-1,2.6-1.6c0.5-0.7,0.7-1.2,0.8-1.4c0.1-0.4,0.4-1.2,0.4-2.2
		c0.1-1,0-2.2-0.2-3.2C64,90.2,63.7,89.3,63.5,88.5z"/>
	<path class="st5" d="M83.6,94.9c-0.3-0.7-0.7-1.6-1.4-2.6c-0.4-0.5-0.9-1-1.7-1.4c0.3-0.4,0.6-0.8,0.8-1.2c0.1-0.3,0.2-0.6,0.3-1
		c0-0.4,0-0.7-0.1-1.1c-0.1-0.3-0.2-0.7-0.4-0.9c-0.2-0.3-0.4-0.5-0.6-0.7c-0.5-0.4-1-0.6-1.5-0.7c-0.5-0.1-1-0.1-1.4-0.1
		c-0.8,0.1-1.5,0.3-2.1,0.5c-0.6,0.2-1.1,0.6-1.6,0.9c-0.2,0.2-0.4,0.3-0.6,0.5c0,0-0.1,0.1-0.1,0.1c-0.4,0.1-0.8,0.2-1,0.3
		c-0.2,0.2,0,2,0.3,3.8c0.3,1.8,0.7,3.6,0.8,3.8c0.2,0.5,0.8,3.3,0.8,3.3s0,0.2,0.4,0.2c0,0,1.4-0.1,1.5-0.9c0-0.4,0-2.1-0.2-4.1
		c0.4-0.1,0.7-0.2,1.1-0.4c0.7-0.1,1.1-0.2,1.2-0.2c0.2,0,0.9-0.1,1.4,0.1c0.5,0.1,1.1,0.8,1.6,1.6c0.5,0.8,0.9,1.6,1.2,2.3
		c0.3,0.7,0.6,1.1,0.6,1.1s0.3,0.5,0.7,0.4c0,0,0.3-0.1,0.6-0.5c0.2-0.4,0.4-0.9,0.1-1.8C84,96,83.9,95.6,83.6,94.9z M75.8,88.3
		c0.8-0.3,2.2-0.4,2.5-0.2c0.2,0.2,0.2,0.1,0.2,0.2c0,0.1-0.1,0.1-0.1,0.3c-0.1,0.1-0.2,0.2-0.2,0.3c-0.1,0.2-0.4,0.4-0.7,0.6
		c-0.6,0.4-1.4,0.8-2.1,1.1c-0.1-0.7-0.3-1.4-0.5-1.9C75.1,88.6,75.4,88.5,75.8,88.3z"/>
	<path class="st5" d="M108.4,85.7c0,0-0.4-0.1-0.7,0.2c-0.4,0.3-0.7,0.9-0.9,2.4c-0.1,0.7-0.1,3.1-0.6,6.3c-0.1,0.4-0.1,0.8-0.2,1.2
		c0,0.2-0.1,0.4-0.1,0.5l0,0c0,0.1-0.1,0-0.1,0l0,0l-0.2-0.2c-0.2-0.1-0.3-0.2-0.5-0.4c-0.3-0.3-0.7-0.6-1-0.9
		c-0.7-0.7-1.3-1.5-2-2.3c-1.4-1.7-2.9-3.3-4.4-5c-0.6-0.7-1.4-1.7-2.1-1.9c-0.3-0.1-0.7-0.2-1.1-0.1c-0.4,0.1-0.8,0.3-1,0.5
		c-0.6,0.5-0.9,1.4-1.1,2.3c0,0.2-0.1,0.5-0.1,0.7l0,0.4c0,0.3,0,0.5-0.1,0.8c-0.2,4-0.2,7.3,0.1,9.3c0,0,1.4,0.3,1.9-0.8
		c0.1-0.3,0.3-2.1,0.6-4.6c0.1-0.6,0.1-1.3,0.2-2.1c0.1-0.7,0.1-1.5,0.2-2.2l0-0.3l0-0.1l0,0l0,0c0,0,0,0,0,0c0,0,0,0,0.1,0
		c1,1.1,2,2.3,3,3.3c1.1,1.2,2,2.3,3,3.4c1,1,1.9,1.9,2.8,2.4c0.2,0.1,0.6,0.3,0.8,0.4c0.3,0.2,0.5,0.2,0.8,0.3
		c0.4,0.1,0.7,0.2,0.9,0.2c0.2,0,0.3,0,0.6-0.1c0.2-0.1,0.5-0.3,0.7-0.5c0.2-0.2,0.3-0.6,0.4-1.1c0-0.2,0.1-0.4,0.1-0.7
		c0-0.2,0.1-0.4,0.1-0.7c0.1-1.3,0.2-2.8,0.3-4.3c0.1-2.9,0-5.6,0-5.6S108.8,85.8,108.4,85.7z"/>
	<path class="st5" d="M128.5,93.3c-0.5-0.9-1-1.9-1.5-3c-0.3-0.6-0.5-1.2-0.8-1.8c-0.2-0.3-0.3-0.7-0.6-1.1
		c-0.1-0.2-0.3-0.4-0.5-0.6c-0.2-0.2-0.5-0.5-0.8-0.6c-1.2-0.7-2.8-0.7-3.7,0.2c-0.5,0.4-0.8,1.1-0.9,1.7c-0.1,0.3-0.2,0.7-0.3,1
		c-0.3,1.3-0.6,2.6-0.9,3.9c-0.5,2.5-0.8,4.6-0.7,6c0,0,1.4,0.5,2-0.1c0.1-0.1,0.5-1.2,0.9-2.7c1.3,0,3.8-0.5,4-0.6
		c0.3-0.2,1.8-0.4,2-0.4c0.2,0.3,0.4,0.5,0.6,0.8c1.1,1.5,2.2,2.9,2.2,2.9s0.3,0.4,0.7,0.3c0,0,0.3-0.2,0.5-0.5
		c0.2-0.4,0.3-0.9-0.2-1.8C130.3,96.3,129.5,95,128.5,93.3z M121.6,93c0.2-0.9,0.5-1.8,0.7-2.8l0.2-0.8l0.1-0.4l0-0.2l0,0
		c0,0,0-0.1,0.1-0.1c0.1,0,0.1,0,0.2,0c0,0,0,0,0.1,0c0,0,0.1,0.1,0.1,0.1c0.1,0.1,0.2,0.2,0.3,0.4c0.3,0.6,0.7,1.4,1,1.8
		c0.3,0.5,0.5,0.8,0.6,1c0.1,0.1,0.3,0.4,0.5,0.8C124.3,92.7,122.8,92.7,121.6,93z"/>
	<path class="st5" d="M152.4,97.7c-0.1-0.4-0.5-0.9-1.5-1.1c-0.5-0.1-2.3-0.4-4.7-0.3c-1.2,0-2.6,0.2-4,0.5c-0.7,0.1-1.4,0.3-2,0.4
		l-0.2,0c0,0,0,0,0,0v0l0,0l0,0l0,0l0,0l0-0.1l0-0.2c0-0.7,0.1-1.3,0.1-2c0.1-1.3,0.1-2.6,0.1-3.7c0-2.3-0.1-4.3-0.4-5.6
		c0,0-1.4-0.3-1.9,0.4c-0.2,0.2-0.4,2.1-0.6,4.5c-0.1,1.2-0.2,2.6-0.3,4c0,0.7-0.1,1.4-0.1,2.1l0,0.6c0,0.3-0.1,0.6-0.1,1
		c0,0.6,0.2,1.1,0.5,1.5c0.4,0.5,0.9,0.7,1.5,0.7c0.3,0,0.6,0,0.9-0.1c0.3,0,0.7-0.1,0.8-0.1c0.7-0.1,1.3-0.3,1.8-0.4
		c0.9-0.3,1.6-0.4,1.8-0.5c0.5-0.2,2.4-0.6,4.2-0.6c1.8-0.1,3.5,0.1,3.5,0.1s0.5,0.1,0.7-0.3C152.4,98.4,152.5,98.1,152.4,97.7z"/>
</g>
</svg>
